# AST/ASF file generated using VICON BodyLanguage
# -----------------------------------------------
:version 1.10
:name VICON
:units
  mass 1.0
  length 0.45
  angle deg
:documentation
   .ast/.asf automatically generated from VICON data using
   VICON BodyBuilder and BodyLanguage model FoxedUp or BRILLIANT.MOD
:root
   order TX TY TZ RX RY RZ
   axis XYZ
   position 0 0 0  
   orientation 0 0 0 
:bonedata
  begin
     id 1 
     name lhipjoint
     direction 0.612567 -0.751349 0.245431 
     length 2.42285 
     axis 0 0 0  XYZ
  end
  begin
     id 2 
     name lfemur
     direction 0.34202 -0.939693 0  
     length 7.11304  
     axis 0 0 20  XYZ
    dof rx ry rz
    limits (-160.0 20.0)
           (-70.0 70.0)
           (-60.0 70.0)
  end
  begin
     id 3 
     name ltibia
     direction 0.34202 -0.939693 0   
     length 7.84529   
     axis 0 0 20   XYZ
    dof rx
    limits (-10.0 170.0)
  end
  begin
     id 4 
     name lfoot
     direction 0.0779239 -0.214094 0.9737   
     length 1.97176   
     axis -90 7.62852e-016 20   XYZ
    dof rx rz
    limits (-45.0 90.0)
           (-70.0 20.0)
  end
  begin
     id 5 
     name ltoes
     direction 1.53565e-011 -4.21709e-011 1   
     length 0.993197   
     axis -90 7.62852e-016 20   XYZ
    dof rx
    limits (-90.0 20.0)
  end
  begin
     id 6 
     name rhipjoint
     direction -0.665722 -0.709315 0.231701   
     length 2.56642  
     axis 0 0 0  XYZ 
  end
  begin
     id 7 
     name rfemur
     direction -0.34202 -0.939693 0   
     length 7.32108   
     axis 0 0 -20   XYZ
    dof rx ry rz
    limits (-160.0 20.0)
           (-70.0 70.0)
           (-70.0 60.0)
  end
  begin
     id 8 
     name rtibia
     direction -0.34202 -0.939693 0   
     length 7.81254   
     axis 0 0 -20   XYZ
    dof rx
    limits (-10.0 170.0)
 end
 begin
     id 9 
     name rfoot
     direction -0.0832806 -0.228812 0.969902   
     length 2.08278  
     axis -90 -7.62852e-016 -20   XYZ
    dof rx rz
    limits (-45.0 90.0)
           (-20.0 70.0)
  end
  begin
     id 10 
     name rtoes
     direction -1.53589e-011 -4.22086e-011 1   
     length 1.04609   
     axis -90 -7.62852e-016 -20   XYZ
    dof rx
    limits (-90.0 20.0)
  end
  begin
     id 11 
     name lowerback
     direction -0.00506013 0.988403 -0.151766   
     length 2.01978   
     axis 0 0 0   XYZ
    dof rx ry rz
    limits (-20.0 45.0)
           (-30.0 30.0)
           (-30.0 30.0)
  end
  begin
     id 12 
     name upperback
     direction -0.00836389 0.99968 0.0238859   
     length 2.01276   
     axis 0 0 0   XYZ
    dof rx ry rz
    limits (-20.0 45.0)
           (-30.0 30.0)
           (-30.0 30.0)
  end
  begin
     id 13 
     name thorax
     direction -0.00684136 0.995386 0.0957043   
     length 2.07303   
     axis 0 0 0   XYZ
    dof rx ry rz
    limits (-20.0 45.0)
           (-30.0 30.0)
           (-30.0 30.0)
  end
  begin
     id 14 
     name lowerneck
     direction -0.0161045 0.999661 0.0204485   
     length 1.91243   
     axis 0 0 0   XYZ
    dof rx ry rz
    limits (-20.0 45.0)
           (-30.0 30.0)
           (-30.0 30.0)
  end
  begin
     id 15 
     name upperneck
     direction 0.0553583 0.990946 -0.122319   
     length 1.91574   
     axis 0 0 0   XYZ
    dof rx ry rz
    limits (-20.0 45.0)
           (-30.0 30.0)
           (-30.0 30.0)
  end
  begin
     id 16
     name head
     direction 0.0180273 0.998839 -0.0446756  
     length 1.92693  
     axis 0 0 0   XYZ
    dof rx ry rz
    limits (-20.0 45.0)
           (-30.0 30.0)
           (-30.0 30.0)
  end
  begin
     id 17 
     name lclavicle
     direction 0.945646 0.319323 -0.0615358  
     length 4.0076  
     axis 0 0 0   XYZ
    dof ry rz
    limits (-20.0 10.0)
           (0.0 20.0)
  end
  begin
     id 18 
     name lhumerus
     direction 1 -4.48967e-011 -2.79996e-027   
     length 5.64147   
     axis 180 -30 -90   XYZ
    dof rx ry rz
    limits (-60.0 90.0)
           (-90.0 90.0)
           (-90.0 90.0)
  end
  begin
     id 19
     name lradius
     direction 1 -4.48976e-011 -9.5122e-027   
     length 2.86444   
     axis 180 -30 -90   XYZ
    dof rx
    limits (-10.0 170.0)
  end
  begin
     id 20
     name lwrist
     direction 1 -4.48983e-011 -1.24047e-026   
     length 1.43222   
     axis 9.05591e-015 90 90   XYZ
    dof ry
    limits (-180.0 0.0)
 end
  begin
     id 21 
     name lhand
     direction 1 -4.4892e-011 -2.48094e-026   
     length 0.722123   
     axis 1.58305e-014 90 90   XYZ
    dof rx rz
    limits (-90.0 90.0)
           (-45.0 45.0)
  end
  begin
     id 22 
     name lfingers
     direction 1 -4.48895e-011 -4.96187e-026   
     length 0.582194   
     axis 3.1661e-014 90 90   XYZ
    dof rx
    limits (0.0 90.0)
  end
  begin
     id 23
     name lthumb
     direction 0.707107 -6.34961e-011 0.707107   
     length 0.835918   
     axis -90 45 2.85299e-015   XYZ
    dof rx rz
    limits (-45.0 45.0)
           (-45.0 45.0)
  end
  begin
     id 24 
     name rclavicle
     direction -0.932635 0.324218 -0.15835   
     length 3.65819  
     axis 0 0 0   XYZ 
    dof ry rz
    limits (-10.0 20.0)
           (-20.0 0.0)
  end
  begin
     id 25 
     name rhumerus
     direction -1 -4.48965e-011 -4.02296e-027  
     length 5.44729   
     axis 180 30 90   XYZ
    dof rx ry rz
    limits (-90.0 60.0)
           (-90.0 90.0)
           (-90.0 90.0)
  end
  begin
     id 26 
     name rradius
     direction -1 -4.48957e-011 -8.81087e-027   
     length 3.08821   
     axis 180 30 90   XYZ
    dof rx
    limits (-10.0 170.0)
  end
  begin
     id 27 
     name rwrist
     direction -1 -4.49015e-011 -1.24047e-026   
     length 1.5441   
     axis 9.05591e-015 -90 -90   XYZ
    dof ry
    limits (-180.0 0.0)
  end
  begin
     id 28
     name rhand
     direction -1 -4.4891e-011 -2.48094e-026   
     length 0.821049   
     axis 1.58305e-014 -90 -90   XYZ
    dof rx rz
    limits (-90.0 90.0)
           (-45.0 45.0)
  end
  begin
     id 29
     name rfingers
     direction -1 -4.48985e-011 -4.96187e-026   
     length 0.661951   
     axis 3.1661e-014 -90 -90   XYZ
    dof rx
    limits (0.0 90.0)
  end
  begin
     id 30
     name rthumb
     direction -0.707107 -6.34906e-011 0.707107   
     length 0.950433   
     axis -90 -45 -2.85299e-015   XYZ
    dof rx rz
    limits (-45.0 45.0)
           (-45.0 45.0)
  end
:hierarchy
  begin
    root lhipjoint rhipjoint lowerback
    lhipjoint lfemur
    lfemur ltibia
    ltibia lfoot
    lfoot ltoes
    rhipjoint rfemur
    rfemur rtibia
    rtibia rfoot
    rfoot rtoes
    lowerback upperback
    upperback thorax
    thorax lowerneck lclavicle rclavicle
    lowerneck upperneck
    upperneck head
    lclavicle lhumerus
    lhumerus lradius
    lradius lwrist
    lwrist lhand lthumb
    lhand lfingers
    rclavicle rhumerus
    rhumerus rradius
    rradius rwrist
    rwrist rhand rthumb
    rhand rfingers
  end

#!OML:ASF F:\VICON\USERDATA\INSTALL\rory3\rory3.ASF
:FULLY-SPECIFIED
:DEGREES
1
root 3.1294 17.6906 0.576147 -69.7364 88.7134 -68.7451
lowerback 5.37529 -0.419929 3.55267
upperback -1.47894 -0.3644 -1.32457
thorax -4.58452 -0.299522 -3.33877
lowerneck -3.64552 -5.65816 -4.72229
upperneck 4.19034 -7.74441 9.40555
head 2.64463 -3.6745 3.67041
rclavicle 1.2921e-015 1.55052e-014
rhumerus -39.2113 -25.8219 -71.2854
rradius 20.028
rwrist 28.2698
rhand -0.838087 16.263
rfingers 7.12502
rthumb 24.7874 -12.1506
lclavicle 1.2921e-015 1.55052e-014
lhumerus -35.6109 24.573 71.3578
lradius 16.6086
lwrist 15.9001
lhand -12.5773 10.6855
lfingers 7.12502
lthumb 13.5007 40.2279
rfemur 1.2602 0.329943 20.7559
rtibia 13.9379
rfoot -15.3822 -1.1112
rtoes -8.02936
lfemur 3.52626 0.806532 -14.1882
ltibia 8.14895
lfoot -11.1811 0.939771
ltoes -6.61339
2
root 3.12882 17.684 0.575334 -69.1393 88.7079 -68.1572
lowerback 5.34638 -0.42061 3.55183
upperback -1.48664 -0.365899 -1.31585
thorax -4.57619 -0.300067 -3.32908
lowerneck -3.64201 -5.64544 -4.7536
upperneck 4.26729 -7.73207 9.42834
head 2.67201 -3.66684 3.68515
rclavicle 3.45388e-015 2.38542e-015
rhumerus -39.076 -25.5716 -71.6788
rradius 20.0795
rwrist 28.2958
rhand -0.89981 16.3662
rfingers 7.12502
rthumb 24.7282 -12.0556
lclavicle 3.45388e-015 2.38542e-015
lhumerus -35.4001 24.3612 71.4763
lradius 16.4255
lwrist 15.9037
lhand -12.6977 10.5348
lfingers 7.12502
lthumb 13.3846 40.0849
rfemur 1.43181 0.38649 20.772
rtibia 13.6609
rfoot -15.324 -1.13168
rtoes -8.51997
lfemur 3.14324 0.821896 -14.1915
ltibia 8.85937
lfoot -11.4789 0.862393
ltoes -6.58977
3
root 3.1279 17.6797 0.575788 -69.5235 88.6732 -68.5091
lowerback 5.36352 -0.425911 3.57057
upperback -1.48336 -0.370542 -1.30142
thorax -4.58295 -0.3028 -3.32416
lowerneck -3.59134 -5.63664 -4.74605
upperneck 4.27418 -7.722 9.42723
head 2.66359 -3.6628 3.68502
rclavicle 4.91992e-015 1.59028e-015
rhumerus -38.895 -25.321 -72.0868
rradius 20.0183
rwrist 28.2753
rhand -1.08794 16.5661
rfingers 7.12502
rthumb 24.5479 -11.8803
lclavicle 4.91992e-015 1.59028e-015
lhumerus -35.1146 23.6764 71.8577
lradius 16.4574
lwrist 16.3101
lhand -12.6598 10.8873
lfingers 7.12502
lthumb 13.4211 40.4349
rfemur 1.55606 0.420511 20.8257
rtibia 13.5166
rfoot -15.2888 -1.16433
rtoes -8.89372
lfemur 2.991 0.82274 -14.1441
ltibia 9.19505
lfoot -11.6175 0.809125
ltoes -6.67616
4
root 3.12649 17.6786 0.57678 -70.1065 88.6408 -69.0857
lowerback 5.36108 -0.437823 3.57908
upperback -1.48537 -0.385008 -1.2791
thorax -4.58478 -0.309983 -3.30433
lowerneck -3.56272 -5.61548 -4.71327
upperneck 4.2911 -7.69497 9.389
head 2.65779 -3.65023 3.66726
rclavicle -4.77083e-015 -2.78299e-015
rhumerus -38.6324 -24.763 -72.702
rradius 20.0057
rwrist 28.0162
rhand -1.25921 16.5365
rfingers 7.12502
rthumb 24.3837 -11.9321
lclavicle -4.77083e-015 -2.78299e-015
lhumerus -34.848 22.9681 72.2531
lradius 16.5541
lwrist 16.5985
lhand -12.6355 11.2652
lfingers 7.12502
lthumb 13.4446 40.8113
rfemur 1.63387 0.495314 20.8811
rtibia 13.3636
rfoot -15.2417 -1.26111
rtoes -8.8453
lfemur 2.81375 0.819895 -14.0953
ltibia 9.52879
lfoot -11.7595 0.746184
ltoes -6.61209
5
root 3.12587 17.6779 0.575608 -71.1177 88.5468 -70.0859
lowerback 5.36896 -0.437245 3.69494
upperback -1.48128 -0.374487 -1.24577
thorax -4.58498 -0.307546 -3.33597
lowerneck -3.63115 -5.60776 -4.7085
upperneck 4.40124 -7.68982 9.36932
head 2.70603 -3.64423 3.65807
rclavicle -1.27968e-015 -3.97569e-016
rhumerus -38.4159 -24.187 -73.2998
rradius 20.1023
rwrist 27.7594
rhand -1.39469 16.43
rfingers 7.12502
rthumb 24.2539 -12.056
lclavicle -1.27968e-015 -3.97569e-016
lhumerus -34.641 22.4894 72.5445
lradius 16.5241
lwrist 16.7318
lhand -12.7422 11.1602
lfingers 7.12502
lthumb 13.3417 40.713
rfemur 1.68189 0.498246 20.9868
rtibia 13.2893
rfoot -15.2377 -1.26444
rtoes -8.6741
lfemur 2.74659 0.826108 -13.9854
ltibia 9.68025
lfoot -11.8485 0.778418
ltoes -6.89508
6
root 3.1248 17.6773 0.575274 -71.1176 88.511 -70.0703
lowerback 5.39186 -0.427156 3.73398
upperback -1.48707 -0.35716 -1.24089
thorax -4.60288 -0.300467 -3.35457
lowerneck -3.61188 -5.60105 -4.65841
upperneck 4.43911 -7.68513 9.35385
head 2.71131 -3.64087 3.64376
rclavicle 1.30452e-015 1.07344e-014
rhumerus -38.2313 -23.6565 -73.8615
rradius 20.1872
rwrist 27.4971
rhand -1.60935 16.4877
rfingers 7.12502
rthumb 24.048 -12.0256
lclavicle 1.30452e-015 1.07344e-014
lhumerus -34.4695 21.9484 72.8153
lradius 16.4856
lwrist 16.975
lhand -12.8513 10.9691
lfingers 7.12502
lthumb 13.2365 40.5288
rfemur 1.72248 0.570259 21.0335
rtibia 13.2503
rfoot -15.2824 -1.33014
rtoes -8.48194
lfemur 2.73195 0.836365 -13.9512
ltibia 9.75117
lfoot -11.9054 0.738423
ltoes -6.49361
7
root 3.12465 17.6779 0.574336 -70.1362 88.5337 -69.0788
lowerback 5.40133 -0.427554 3.70576
upperback -1.4878 -0.359438 -1.2431
thorax -4.60895 -0.300962 -3.34071
lowerneck -3.59176 -5.57009 -4.65471
upperneck 4.46287 -7.64632 9.37279
head 2.71339 -3.62086 3.65218
rclavicle 2.33572e-015 -3.97569e-016
rhumerus -38.0339 -23.214 -74.347
rradius 20.2792
rwrist 27.3871
rhand -1.64373 16.5592
rfingers 7.12502
rthumb 24.0151 -11.9585
lclavicle 2.33572e-015 -3.97569e-016
lhumerus -34.2327 21.3216 73.1683
lradius 16.4284
lwrist 17.2748
lhand -12.9882 10.8383
lfingers 7.12502
lthumb 13.1046 40.4065
rfemur 1.74773 0.595123 21.0051
rtibia 13.2117
rfoot -15.2599 -1.38145
rtoes -8.79286
lfemur 2.72591 0.852358 -13.9912
ltibia 9.81594
lfoot -11.9514 0.672983
ltoes -6.20138
8
root 3.12564 17.6782 0.572479 -70.7003 88.5049 -69.6453
lowerback 5.37043 -0.446145 3.76575
upperback -1.48267 -0.380845 -1.23457
thorax -4.58846 -0.312659 -3.3637
lowerneck -3.592 -5.53473 -4.65668
upperneck 4.50664 -7.60249 9.39632
head 2.72621 -3.59743 3.6631
rclavicle 4.89507e-015 3.18055e-015
rhumerus -37.8362 -22.6221 -74.9069
rradius 20.4229
rwrist 27.1179
rhand -1.60065 16.5674
rfingers 7.12502
rthumb 24.0564 -11.9448
lclavicle 4.89507e-015 3.18055e-015
lhumerus -34.0254 20.932 73.3931
lradius 16.3939
lwrist 17.3606
lhand -13.11 10.857
lfingers 7.12502
lthumb 12.9872 40.4327
rfemur 1.75308 0.546847 21.0262
rtibia 13.2046
rfoot -15.2241 -1.35623
rtoes -9.08197
lfemur 2.73074 0.848585 -13.9615
ltibia 9.8075
lfoot -11.9453 0.701652
ltoes -6.57949
9
root 3.12602 17.6781 0.569642 -70.8283 88.5099 -69.7915
lowerback 5.34513 -0.44995 3.80053
upperback -1.49984 -0.384445 -1.24111
thorax -4.5928 -0.315898 -3.38988
lowerneck -3.58762 -5.51868 -4.63803
upperneck 4.56246 -7.58554 9.39908
head 2.74212 -3.58736 3.66153
rclavicle 2.88238e-015 4.77083e-015
rhumerus -37.7206 -22.2424 -75.308
rradius 20.4979
rwrist 27.003
rhand -1.71362 16.6949
rfingers 7.12502
rthumb 23.948 -11.8316
lclavicle 2.88238e-015 4.77083e-015
lhumerus -33.9198 20.725 73.5035
lradius 16.4293
lwrist 17.226
lhand -13.2047 11.1653
lfingers 7.12502
lthumb 12.8959 40.7468
rfemur 1.72137 0.450978 20.9983
rtibia 13.2275
rfoot -15.1899 -1.25349
rtoes -8.49309
lfemur 2.73336 0.845755 -13.975
ltibia 9.74471
lfoot -11.8852 0.776712
ltoes -7.19324
10
root 3.12595 17.6785 0.568079 -70.5584 88.5436 -69.5196
lowerback 5.35535 -0.443374 3.76492
upperback -1.51048 -0.377373 -1.23418
thorax -4.60864 -0.311781 -3.3632
lowerneck -3.57221 -5.51743 -4.65545
upperneck 4.57828 -7.58397 9.39048
head 2.74489 -3.58731 3.66225
rclavicle -1.30452e-015 7.95139e-016
rhumerus -37.5973 -21.8518 -75.6705
rradius 20.5617
rwrist 26.8171
rhand -1.88606 16.7196
rfingers 7.12502
rthumb 23.7827 -11.8285
lclavicle -1.30452e-015 7.95139e-016
lhumerus -33.7576 20.1612 73.8384
lradius 16.411
lwrist 17.4995
lhand -13.4042 11.1724
lfingers 7.12502
lthumb 12.7035 40.766
rfemur 1.72492 0.468987 20.9542
rtibia 13.2349
rfoot -15.2413 -1.20714
rtoes -6.95386
lfemur 2.75265 0.841401 -14.0164
ltibia 9.70978
lfoot -11.8409 0.763547
ltoes -7.20351
11
root 3.12676 17.6784 0.56661 -69.6379 88.6036 -68.5771
lowerback 5.36494 -0.448719 3.68062
upperback -1.50843 -0.38986 -1.22718
thorax -4.61205 -0.315498 -3.30709
lowerneck -3.58217 -5.51094 -4.65294
upperneck 4.62435 -7.57673 9.35873
head 2.75982 -3.58349 3.6507
rclavicle 3.8763e-015 -8.34896e-015
rhumerus -37.4629 -21.3751 -76.0791
rradius 20.6447
rwrist 26.5281
rhand -2.05397 16.6458
rfingers 7.12502
rthumb 23.6216 -11.9231
lclavicle 3.8763e-015 -8.34896e-015
lhumerus -33.6216 19.6978 74.1107
lradius 16.3263
lwrist 17.6959
lhand -13.4027 10.8696
lfingers 7.12502
lthumb 12.705 40.4632
rfemur 1.74761 0.465991 20.875
rtibia 13.2458
rfoot -15.2753 -1.18293
rtoes -6.6461
lfemur 2.81227 0.841632 -14.0977
ltibia 9.67636
lfoot -11.8456 0.721849
ltoes -6.84619
12
root 3.12756 17.678 0.564696 -69.58 88.6383 -68.5256
lowerback 5.34356 -0.456229 3.65777
upperback -1.50706 -0.402504 -1.2328
thorax -4.59938 -0.320908 -3.29888
lowerneck -3.60355 -5.51034 -4.60032
upperneck 4.66106 -7.57813 9.31207
head 2.77091 -3.58318 3.62364
rclavicle 2.50966e-015 -3.97569e-015
rhumerus -37.3536 -21.0832 -76.4133
rradius 20.6514
rwrist 26.3773
rhand -2.39422 16.6816
rfingers 7.12502
rthumb 23.2952 -11.9291
lclavicle 2.50966e-015 -3.97569e-015
lhumerus -33.5403 19.3236 74.2775
lradius 16.3246
lwrist 17.7119
lhand -13.275 10.7203
lfingers 7.12502
lthumb 12.8281 40.3062
rfemur 1.74013 0.460212 20.8273
rtibia 13.2524
rfoot -15.2511 -1.17611
rtoes -7.62752
lfemur 2.82403 0.831873 -14.1401
ltibia 9.6419
lfoot -11.8291 0.713863
ltoes -6.59461
13
root 3.12759 17.6775 0.563755 -70.3371 88.6117 -69.2832
lowerback 5.35547 -0.466935 3.69625
upperback -1.51979 -0.412868 -1.21736
thorax -4.6206 -0.32758 -3.30354
lowerneck -3.59066 -5.50723 -4.59628
upperneck 4.7027 -7.57651 9.29969
head 2.78157 -3.5821 3.61891
rclavicle 5.77718e-015 2.38542e-015
rhumerus -37.2865 -21.0386 -76.5691
rradius 20.6203
rwrist 26.4627
rhand -2.64139 16.8116
rfingers 7.12502
rthumb 23.0581 -11.829
lclavicle 5.77718e-015 2.38542e-015
lhumerus -33.5008 18.8153 74.5371
lradius 16.4545
lwrist 17.9904
lhand -13.2666 10.8058
lfingers 7.12502
lthumb 12.8362 40.3912
rfemur 1.74016 0.468241 20.8602
rtibia 13.2525
rfoot -15.2176 -1.2149
rtoes -8.30686
lfemur 2.81957 0.824157 -14.112
ltibia 9.63628
lfoot -11.8157 0.742039
ltoes -6.9363
14
root 3.12792 17.6775 0.5629 -71.0577 88.5849 -70.0141
lowerback 5.33107 -0.485558 3.71165
upperback -1.52303 -0.436456 -1.19266
thorax -4.61209 -0.339243 -3.28428
lowerneck -3.60018 -5.50475 -4.60107
upperneck 4.75731 -7.5758 9.28755
head 2.80139 -3.58089 3.6154
rclavicle -2.24875e-015 4.77083e-015
rhumerus -37.192 -20.7967 -76.8461
rradius 20.6754
rwrist 26.3484
rhand -2.73515 16.8192
rfingers 7.12502
rthumb 22.9681 -11.8325
lclavicle -2.24875e-015 4.77083e-015
lhumerus -33.4352 18.3574 74.8142
lradius 16.5599
lwrist 18.2294
lhand -13.2941 10.8806
lfingers 7.12502
lthumb 12.8096 40.4676
rfemur 1.7405 0.442236 20.8888
rtibia 13.233
rfoot -15.203 -1.1983
rtoes -8.30737
lfemur 2.78888 0.817074 -14.078
ltibia 9.6696
lfoot -11.8342 0.749382
ltoes -7.06402
